Coordinates
version=1
nRows=39
nColumns=6
inDegrees=yes

Units are S.I. units (second, meters, Newtons, ...)
If the header above contains a line with 'inDegrees', this indicates whether rotational values are in degrees (yes) or radians (no).

endheader
time	foot_tx	hip_flexion_r	knee_angle_r	ankle_angle_r	lumbar
     38.00000000	      0.23299789	     69.12661421	    -75.77924456	      4.29123552	    -11.80974578
     38.01000000	      0.23298045	     69.11191312	    -75.77552639	      4.28958296	    -11.79700429
     38.02000000	      0.23295336	     69.09953885	    -75.77119589	      4.28620221	    -11.78645677
     38.03000000	      0.23293325	     69.08872565	    -75.76277140	      4.27819019	    -11.77876463
     38.04000000	      0.23289307	     69.07829776	    -75.75931778	      4.27339083	    -11.77157734
     38.05000000	      0.23287001	     69.06758059	    -75.74817470	      4.26174357	    -11.76969253
     38.06000000	      0.23283612	     69.05464494	    -75.73947614	      4.25173334	    -11.77014266
     38.07000000	      0.23279742	     69.04117281	    -75.73119185	      4.24189989	    -11.77121789
     38.08000000	      0.23274126	     69.03083007	    -75.72873975	      4.23622445	    -11.76556438
     38.09000000	      0.23271074	     68.99864926	    -75.71891988	      4.22523566	    -11.78885779
     38.10000000	      0.23265862	     68.98800274	    -75.71716309	      4.21860537	    -11.78100759
     38.11000000	      0.23261731	     68.97612851	    -75.71506352	      4.21061564	    -11.77311792
     38.12000000	      0.23258130	     68.96243055	    -75.71350636	      4.20245946	    -11.76500614
     38.13000000	      0.23255810	     68.91010170	    -75.70853675	      4.19480089	    -11.80116395
     38.14000000	      0.23252305	     68.89130221	    -75.70802367	      4.18914464	    -11.78879666
     38.15000000	      0.23249875	     68.81802403	    -75.70146841	      4.18565336	    -11.83682881
     38.16000000	      0.23246485	     68.79246125	    -75.69638813	      4.18193656	    -11.81997435
     38.17000000	      0.23244720	     68.71147437	    -75.68296303	      4.17882747	    -11.86727298
     38.18000000	      0.23240464	     68.68452772	    -75.67396511	      4.17776037	    -11.84554334
     38.19000000	      0.23238823	     68.66091118	    -75.65541915	      4.17088789	    -11.82004515
     38.20000000	      0.23235623	     68.68936645	    -75.64062560	      4.16486701	    -11.72968058
     38.21000000	      0.23232344	     68.72944487	    -75.62503393	      4.15859311	    -11.62564519
     38.22000000	      0.23229147	     68.78239761	    -75.61270180	      4.15302339	    -11.50740086
     38.23000000	      0.23226070	     68.84009587	    -75.60467846	      4.14874654	    -11.38586763
     38.24000000	      0.23223551	     68.89506292	    -75.60142390	      4.14606940	    -11.26996793
     38.25000000	      0.23220905	     68.94302952	    -75.60316510	      4.14620729	    -11.16430658
     38.26000000	      0.23219155	     68.97962416	    -75.60618437	      4.14700030	    -11.07461234
     38.27000000	      0.23217630	     69.00719339	    -75.61102806	      4.14930156	    -10.99775534
     38.28000000	      0.23216953	     69.02501998	    -75.61512283	      4.15151587	    -10.93468239
     38.29000000	      0.23217011	     69.03637074	    -75.61799469	      4.15331272	    -10.88180972
     38.30000000	      0.23218420	     69.02023516	    -75.61653631	      4.15431767	    -10.86490990
     38.31000000	      0.23220287	     69.04414746	    -75.61609881	      4.15232103	    -10.80285140
     38.32000000	      0.23223124	     69.03029527	    -75.61269670	      4.15120082	    -10.78967260
     38.33000000	      0.23226929	     69.01915758	    -75.60696683	      4.14801942	    -10.77678564
     38.34000000	      0.23234759	     69.01866438	    -75.59188236	      4.13488868	    -10.75977689
     38.35000000	      0.23240053	     69.04491073	    -75.58446678	      4.12570796	    -10.71241015
     38.36000000	      0.23245806	     69.04075552	    -75.57354335	      4.11651046	    -10.70693385
     38.37000000	      0.23251534	     69.04007085	    -75.56274217	      4.10648440	    -10.70261860
     38.38000000	      0.23256536	     69.04318297	    -75.55264760	      4.09617193	    -10.70051419
